<svg id="Layer_1" data-name="Layer 1" xmlns="http://www.w3.org/2000/svg" viewBox="0 0 193.04 193.03"><defs><style>.cls-1{fill:#fff;}.cls-2{fill:#27b2b4;}.cls-3{fill:#2ab4b5;}.cls-4{fill:#0b88c3;}.cls-5{fill:#0472ab;}.cls-6{fill:#06a5be;}</style></defs><title>sygnet</title><rect class="cls-1" width="193.03" height="193.03"/><polygon id="_Path_" data-name=" Path " class="cls-2" points="32.19 151.47 0 96.55 64.34 96.52 32.19 151.47"/><polyline id="_Path_2" data-name=" Path 2" class="cls-3" points="32.15 41.62 0 96.55 64.34 96.52 32.15 41.62"/><polyline id="_Path_3" data-name=" Path 3" class="cls-4" points="96.5 41.59 32.15 41.62 64.34 96.52"/><polygon id="_Path_4" data-name=" Path 4" class="cls-5" points="96.54 151.44 128.69 96.51 64.34 96.52 96.54 151.44"/><polygon id="_Path_5" data-name=" Path 5" class="cls-5" points="64.34 96.52 128.69 96.51 96.5 41.59 64.34 96.52"/><polygon id="_Path_6" data-name=" Path 6" class="cls-6" points="96.54 151.44 160.88 151.42 128.69 96.51 96.54 151.44"/><polygon id="_Path_7" data-name=" Path 7" class="cls-3" points="160.88 151.42 193.03 96.48 128.69 96.51 160.88 151.42"/><polygon id="_Path_8" data-name=" Path 8" class="cls-3" points="128.69 96.51 193.03 96.48 160.86 41.56 128.69 96.51"/></svg>